<svg width="100%" height="100%" overflow="visible" style="display: block;" viewBox="0 0 33.46 47.81" fill="none" xmlns="http://www.w3.org/2000/svg">
<g id="Group">
<path id="Vector" d="M16.73 17.38C9.37998 17.38 3.40002 23.43 3.40002 30.87C3.40002 38.31 9.37998 44.36 16.73 44.36C24.08 44.36 30.06 38.31 30.06 30.87C30.06 23.43 24.08 17.38 16.73 17.38ZM16.73 47.81C7.49998 47.81 0 40.21 0 30.87C0 21.53 7.50998 13.93 16.73 13.93C25.95 13.93 33.46 21.53 33.46 30.87C33.46 40.21 25.95 47.81 16.73 47.81Z" fill="var(--fill-0, #D0D0D0)"/>
<path id="Vector_2" d="M11.58 45.44C10.11 44.94 8.70997 44.2 7.42997 43.29C6.15997 42.36 5.01997 41.25 4.05997 40C2.12997 37.49 1.02995 34.35 0.909947 31.17C0.829947 27.99 1.73999 24.79 3.51999 22.16C4.40999 20.85 5.47998 19.68 6.68998 18.68C7.91998 17.7 9.27 16.88 10.71 16.31C7.97 17.77 5.62 19.9 4.03 22.5C2.43 25.09 1.56999 28.12 1.69999 31.15C1.74999 34.18 2.79995 37.16 4.53995 39.64C6.27995 42.14 8.74997 44.14 11.56 45.44H11.58Z" fill="var(--fill-0, white)"/>
<path id="Vector_3" d="M22.77 16.31C24.21 16.89 25.56 17.71 26.79 18.68C28 19.68 29.08 20.85 29.96 22.16C31.74 24.78 32.64 27.99 32.57 31.16C32.45 34.35 31.35 37.48 29.42 40C28.46 41.25 27.32 42.37 26.05 43.29C24.77 44.2 23.38 44.94 21.9 45.44C24.71 44.13 27.18 42.14 28.92 39.64C30.67 37.15 31.71 34.17 31.77 31.15C31.91 28.11 31.04 25.08 29.45 22.5C27.86 19.9 25.51 17.77 22.77 16.31Z" fill="var(--fill-0, #A5A5A5)"/>
<path id="Vector_4" d="M11.58 10.44L16.73 15.66L21.89 10.44H11.58Z" fill="var(--fill-0, #D0D0D0)"/>
<path id="Vector_5" d="M18.44 10.44L17.29 13.93L18.35 14.01L21.88 10.44H18.44Z" fill="var(--fill-0, #A5A5A5)"/>
<path id="Vector_6" d="M14.15 0L13.28 5.21999H6.41998L9 0H14.15Z" fill="var(--fill-0, #B6FFF1)"/>
<path id="Vector_7" d="M13.28 5.21999L15 10.44H11.56L6.41998 5.21999H13.28Z" fill="var(--fill-0, #6ADBC6)"/>
<path id="Vector_8" d="M14.15 0L13.28 5.21999H20.17L19.32 0H14.15Z" fill="var(--fill-0, #6ADBC6)"/>
<path id="Vector_9" d="M19.32 0L20.17 5.21999H27.04L24.46 0H19.32Z" fill="var(--fill-0, #42ADE2)"/>
<path id="Vector_10" d="M13.28 5.21999L15 10.44H18.44L20.17 5.21999H13.28Z" fill="var(--fill-0, #42ADE2)"/>
<path id="Vector_11" d="M20.17 5.21999L18.44 10.44H21.89L27.04 5.21999H20.17Z" fill="var(--fill-0, #428BC1)"/>
</g>
</svg>
