<svg width="223" height="121" viewBox="0 0 223 121" fill="none" xmlns="http://www.w3.org/2000/svg">
<g clip-path="url(#clip0_1077_36416)">
<path d="M47.9079 48.238C42.9543 53.8298 38.0007 59.8775 33.199 65.5909C32.9255 65.9252 32.7735 66.3506 32.5608 66.7153C31.801 68.6299 32.3785 70.9092 33.8676 72.1856C36.6331 72.2463 39.3074 72.3071 42.1945 72.1856C42.1641 71.9424 41.9514 71.7905 41.8298 71.5778C40.827 70.0886 40.827 67.9005 41.7691 66.4114C46.6315 60.3941 51.6459 54.5288 56.7515 48.5115C56.8122 48.4508 56.9034 48.2988 56.7515 48.238C55.4751 48.2684 54.1987 48.238 52.9223 48.2076C51.9498 48.2076 51.0077 48.1772 50.096 48.1772C49.3666 48.1772 48.6373 48.1772 47.9079 48.238Z" fill="#8E8D8C"/>
<path d="M53.2882 53.5565L53.2578 53.8604L59.7917 61.8226C61.0681 63.4637 62.5268 64.9528 63.6513 66.6851C64.4718 68.4173 64.1679 70.727 62.9523 72.2161L62.9827 72.3377H71.0969C71.6135 72.2465 71.8871 71.6995 72.2517 71.3044C73.1331 69.7241 73.1938 67.536 72.2213 66.0165C67.4805 60.1816 62.6484 54.2555 57.8467 48.4813L57.634 48.4509L53.2882 53.5565Z" fill="#8E8D8C"/>
<path d="M50.2418 59.5735C48.9958 62.4909 51.4574 64.6486 52.5819 67.0191C53.2809 65.4996 54.7396 64.1928 55.1651 62.4909C56.0464 59.9077 53.9494 57.8412 52.673 55.8354C51.8221 57.0511 50.8496 58.2667 50.2418 59.5735Z" fill="#8E8D8C"/>
<path d="M136.552 56.4436C135.489 57.0514 134.486 58.1151 133.453 58.8444C131.963 60.4551 129.259 58.8444 127.83 60.5767C127.557 60.7286 127.314 61.458 126.919 61.1845C126.919 60.5463 127.071 59.7257 126.341 59.4522C125.308 59.3003 124.153 59.4218 123.15 59.5434C122.694 59.6042 122.239 59.6954 121.935 60.0296C121.448 60.8806 122.664 61.0933 122.755 61.8531C122.998 64.649 122.998 67.3537 122.664 69.9977C122.512 70.5751 121.722 70.9398 121.965 71.6387C122.026 71.973 122.391 72.0338 122.664 72.1554C123.819 72.1858 124.974 72.3073 126.189 72.2465C126.797 72.2161 127.527 72.2465 127.861 71.6691C128.256 70.9701 127.466 70.5447 127.253 69.9369C126.949 68.1135 127.253 65.895 127.223 63.9196L127.405 63.4941C128.104 62.1874 129.715 62.3697 130.991 62.3393C131.447 62.4609 132.115 62.2785 132.419 62.7952C132.662 64.0412 132.511 65.4999 132.45 66.6547C132.511 68.3262 131.872 70.1496 132.906 71.5476C134.364 72.6112 136.34 72.2465 138.042 72.0642C139.591 70.9094 137.13 70.3927 136.947 69.3898C136.765 67.0194 136.826 64.9833 136.978 62.552C137.525 61.8227 138.528 62.3697 139.136 61.7619C139.439 61.2756 139.348 60.6678 139.348 60.06C139.196 59.5434 138.741 59.5434 138.254 59.5434C137.89 59.5434 137.525 59.5434 137.282 59.3307C137.039 58.4797 137.464 57.6288 137.191 56.8083C137.13 56.5348 136.856 56.3828 136.552 56.3828C136.583 56.4436 136.552 56.4436 136.552 56.4436Z" fill="#8E8D8C"/>
<path d="M80.9356 63.7068C80.9963 62.2177 81.6042 60.8805 82.0904 59.5433C82.1816 59.2698 82.4855 58.9963 82.8198 58.9355C83.8226 59.0267 83.7315 60.1815 83.9442 60.9109C84.0354 61.8226 84.4912 62.7039 84.4304 63.6156C84.1265 64.0107 83.4883 63.9195 83.0629 63.9803C82.2727 63.9499 81.6041 63.9499 80.9356 63.7068ZM91.8153 56.17C90.0526 56.9602 92.3319 57.9023 92.0888 59.0267C92.3623 62.0961 92.3319 65.6822 92.2104 68.63C92.1192 69.2682 92.18 69.9976 91.7545 70.5142C91.5722 70.6358 91.3594 70.7574 91.1163 70.6662C90.6908 70.4838 90.5389 69.9672 90.3565 69.5721C89.0802 65.044 88.0469 60.4247 86.7401 55.9269C86.5882 55.5926 86.3146 55.2279 85.9803 55.076L84.4608 54.8632C84.0961 54.8632 83.7011 54.8328 83.2756 54.8025C82.2727 54.7417 81.2395 54.6809 80.3885 55.076C80.115 55.2887 80.115 55.623 80.1454 55.9877C80.8444 56.7474 80.2062 57.7807 80.0239 58.6012C78.869 61.4883 77.9269 64.4058 76.7417 67.2625C76.3162 68.6908 75.5869 69.9672 75.3438 71.4259C75.5869 72.5504 76.9544 72.2769 77.8965 72.3984C78.4436 72.3376 79.1121 72.4288 79.416 71.8818C79.7807 71.0005 78.3828 70.6054 78.9298 69.6025C79.3553 68.1134 79.7503 66.6547 80.2974 65.1959L80.5405 65.1655L81.6953 66.2292C82.2727 66.5331 82.9717 66.5027 83.6707 66.5027C84.1873 66.5027 84.704 66.5027 85.1598 66.5939C85.5853 67.2625 85.5853 68.2046 85.8284 68.9947C86.5578 70.1192 85.099 70.8181 85.4941 71.8818C85.798 72.3376 86.4362 72.3376 86.9832 72.4288L94.0034 72.368C95.1278 72.3376 96.3738 72.4288 97.3159 72.0034C98.1365 70.9701 96.465 70.4838 96.6169 69.481C96.4042 65.1048 96.6473 60.2423 96.7993 55.5622L96.7081 55.076C96.5562 54.6505 96.1003 54.6505 95.766 54.6201C94.3073 55.0152 93.0613 55.6838 91.8153 56.17Z" fill="#8E8D8C"/>
<path d="M140.775 59.8471C139.134 60.6981 139.317 62.6126 139.377 64.1929C139.529 65.8644 141.11 66.7457 142.538 67.2016C143.632 67.7486 145.243 67.9006 145.668 69.2073C145.668 69.572 145.607 69.9367 145.304 70.1798C144.149 70.6357 142.751 70.3622 141.778 69.724C140.775 69.3289 140.927 67.7182 139.621 67.8702C138.709 68.3868 139.134 69.8759 139.226 70.818C139.286 72.4287 141.11 72.0944 142.173 72.4591C144.24 72.5807 146.702 72.7934 148.251 71.365C149.163 70.423 149.376 68.873 149.285 67.5967C148.95 64.3449 145.364 64.8919 143.511 63.2205C143.207 62.8254 142.933 62.3391 143.176 61.8529C143.571 61.1539 144.422 61.2147 145.152 61.1843C145.364 61.4578 145.759 61.3363 145.972 61.6402C146.519 62.3391 145.638 62.8862 145.607 63.6155C145.699 63.9498 146.063 64.0714 146.398 64.1322C147.279 64.3145 147.796 63.5244 148.251 62.9469C148.707 62.1568 149.224 61.002 148.616 60.151L148.312 59.9383C147.127 59.3913 145.759 59.1178 144.422 59.1178C143.207 59.0874 141.93 59.3305 140.775 59.8471Z" fill="#8E8D8C"/>
<path d="M177.943 60.1815C176.697 61.4883 177.153 63.6764 177.456 65.2263C178.399 66.7458 180.131 67.0801 181.65 67.5967C182.41 67.931 183.535 68.0526 183.717 69.0251C183.656 69.3898 183.595 69.7848 183.2 69.9672C182.319 70.3926 181.164 70.1799 180.222 69.9368C179.249 69.6329 178.763 68.63 178.095 67.9918C177.852 67.9614 177.7 67.9614 177.456 67.9918C176.606 68.5084 177.153 69.6329 177.001 70.4838L176.909 70.575C176.575 70.423 176.332 70.2407 176.089 69.9672C175.086 67.2928 174.569 64.3754 173.718 61.5795C173.536 60.8501 173.263 60.1511 172.776 59.5129C172.108 58.7835 170.862 59.0267 170.041 59.3306C169.19 59.6649 168.431 60.2727 167.549 60.5462C167.215 60.3638 167.397 59.9384 167.245 59.6345C166.638 58.9355 165.543 59.3306 164.662 59.361C163.902 59.5129 163.082 59.5129 162.504 60.1207C162.018 60.9109 163.143 61.3971 163.203 62.1569C163.416 64.4969 163.507 67.2928 163.325 69.7848C163.173 70.3622 162.565 70.7573 162.626 71.3955C162.748 72.1249 163.538 72.1249 164.115 72.2464C164.449 72.216 164.814 72.2464 165.209 72.2464C166.334 72.2768 167.549 72.3072 168.309 71.5779C168.583 70.8789 167.884 70.5142 167.64 69.9672C167.306 68.0526 167.367 65.8949 167.397 64.0107C167.337 63.5548 167.428 63.1901 167.671 62.8862C167.884 62.6431 168.218 62.6431 168.522 62.6431C168.552 62.6431 168.583 62.6431 168.613 62.6431C169.038 62.8255 169.342 63.1597 169.494 63.5548C170.284 66.0468 170.801 68.7819 171.5 71.3651C171.652 71.821 172.138 72.0945 172.594 72.2464C174.022 72.3376 175.42 72.3984 176.757 71.9729C177.001 71.8818 177.061 71.5475 177.305 71.5475C178.49 72.4896 180.1 72.4592 181.62 72.4288C182.076 72.4288 182.562 72.3984 182.987 72.4288C184.021 72.3072 185.145 72.3072 185.966 71.669C187.424 70.7573 187.668 69.0859 187.546 67.4448C187.242 64.8312 184.294 64.7097 182.501 63.8891C181.893 63.5548 181.134 63.0382 181.225 62.248C181.316 61.9441 181.316 61.6402 181.59 61.4275C182.076 61.0324 182.836 61.0628 183.443 61.2148C183.747 61.3971 183.869 61.701 183.93 62.0353C184.051 62.6431 183.383 63.0078 183.504 63.7068C183.504 63.8891 183.717 64.0107 183.838 64.1018C184.629 64.3754 185.297 63.9803 185.875 63.5244C186.574 62.7343 186.847 61.5491 186.634 60.455C185.905 59.2394 184.416 59.2698 183.17 59.1178C182.866 59.1178 182.532 59.0875 182.197 59.0875C180.708 58.9963 179.098 59.1786 177.943 60.1815Z" fill="#8E8D8C"/>
<path d="M155.187 70.0279C154.457 69.2074 154.305 68.1437 154.214 67.0193C154.214 65.3174 153.728 63.0989 154.579 61.4882C155.126 61.0628 156.159 61.002 156.828 61.3363C157.8 62.4911 157.679 64.193 157.891 65.6213C157.861 66.9585 158.317 68.5388 157.679 69.7848C157.557 69.9367 157.344 69.9975 157.284 70.2102V70.1495C156.949 70.2102 156.554 70.3014 156.159 70.3014C155.794 70.3318 155.46 70.271 155.187 70.0279ZM151.996 59.6952C150.203 60.7893 150.051 62.9166 149.899 64.8919C149.899 67.5663 149.808 71.0308 152.634 72.1856C154.792 72.8542 157.436 72.7326 159.624 72.1552C160.9 71.8209 161.781 70.4838 161.964 69.2074C162.116 66.5634 161.842 63.9195 161.113 61.4578C160.809 60.5461 160.019 59.756 159.077 59.4825C157.952 59.2697 156.645 59.0874 155.369 59.0874C154.184 59.0874 152.999 59.2394 151.996 59.6952Z" fill="#8E8D8C"/>
<path d="M103.063 70.1494C102.424 69.2073 102.668 67.8701 102.607 66.7153C102.698 65.5301 102.485 64.2537 102.88 63.0077C103.093 62.6734 103.458 62.5822 103.822 62.5214C104.947 62.8861 104.977 64.1929 105.312 65.135C105.524 66.5633 106.041 68.1132 105.585 69.5416C105.342 69.967 104.947 70.2405 104.461 70.3925C104.339 70.4229 104.187 70.4533 104.066 70.4533C103.731 70.4533 103.367 70.3317 103.063 70.1494ZM102.09 55.0758C100.723 55.6532 99.4158 56.2914 98.1394 57.1727C97.1062 58.0844 98.8688 58.3883 98.6865 59.3C98.8992 62.9773 98.8992 66.5025 98.5953 70.2102C98.3826 70.6356 98.109 71.0611 98.109 71.6081C98.2306 72.0032 98.5953 72.1855 98.96 72.2767C101.057 72.4286 103.306 72.459 105.463 72.3071C106.436 72.0944 107.469 72.1551 108.29 71.5169C110.204 69.8151 109.809 67.08 109.475 64.8311C108.928 63.0684 108.654 61.0931 107.196 59.6951C105.707 58.6922 104.309 59.999 103.002 60.4549L102.82 60.2725C102.85 58.6619 103.093 56.8688 102.85 55.2581C102.668 55.1062 102.485 55.0454 102.242 55.0454C102.181 55.0758 102.151 55.0758 102.09 55.0758Z" fill="#8E8D8C"/>
<path d="M45.1977 63.9802C44.8635 63.9802 44.5292 63.9802 44.1949 63.9802L44.1037 64.041C43.9821 65.0439 44.0733 66.1075 44.5292 67.0193C45.5624 69.0554 47.6897 69.9671 49.9386 69.724C51.1542 69.9063 52.2179 70.7876 52.4914 71.9729C52.8561 71.3347 53.2816 70.3926 54.1021 70.0583C55.652 69.3897 57.7185 70.0279 59.0253 68.9034C60.6664 67.8702 61.4869 65.8948 61.0615 64.041C60.636 64.041 60.1801 64.041 59.7547 64.0106C58.1744 63.9802 56.5333 63.9194 55.3177 64.8008C53.9501 65.5909 53.0688 66.9281 52.5826 68.3564C52.1267 67.1104 51.367 65.8036 50.2425 65.0439C49.0877 64.1322 47.5986 64.0106 46.0791 64.0106C45.8055 63.9802 45.5016 63.9802 45.1977 63.9802Z" fill="#8E8D8C"/>
<path d="M115.731 70.3319C115.093 69.7849 114.728 68.9644 114.819 68.0831C115.731 67.5056 116.855 67.4145 117.889 67.1106C118.284 67.0498 118.831 67.141 118.922 67.6272C119.043 68.7213 118.648 69.8457 117.706 70.4231C117.372 70.5143 117.007 70.6055 116.673 70.6055C116.339 70.5751 116.035 70.5143 115.731 70.3319ZM114.698 63.8588C114.819 62.9167 114.728 61.7011 115.7 61.2452C116.156 61.1237 116.734 61.1237 117.098 61.458C117.676 62.4001 117.858 63.7069 117.554 64.8921C117.068 65.6518 116.004 65.6822 115.153 65.743C114.454 65.3479 114.758 64.497 114.698 63.8588ZM111.537 61.0933C110.413 63.95 110.382 67.7488 111.294 70.6358C111.628 71.4564 112.509 71.8211 113.239 72.125C115.214 72.5504 117.342 72.7328 119.165 71.8818C120.472 71.1829 121.323 69.7849 121.231 68.3262C121.201 67.3841 120.259 67.1714 119.651 66.7155V66.5939C120.198 66.29 120.928 66.2293 121.201 65.5607C121.596 63.9196 121.171 62.2785 120.411 60.8806C119.955 60.2424 119.438 59.7257 118.709 59.513C117.767 59.3611 116.673 59.1787 115.579 59.1787C113.968 59.2091 112.388 59.6042 111.537 61.0933Z" fill="#8E8D8C"/>
<path d="M188.34 58.2367H188.856C189.069 58.2367 189.343 58.267 189.343 58.5406C189.343 58.8749 189.008 58.8749 188.765 58.8749C188.735 58.8749 188.704 58.8749 188.704 58.8749H188.37L188.34 58.2367ZM188.917 58.0543H188.127V59.8777H188.34V59.0268H188.735L189.251 59.8777H189.525L188.978 59.0268C189.312 59.0268 189.555 58.8749 189.555 58.5102C189.555 58.3582 189.495 58.2063 189.343 58.1151C189.221 58.0543 189.069 58.0239 188.948 58.0239C188.948 58.0543 188.948 58.0543 188.917 58.0543ZM187.306 58.9964C187.306 58.2063 187.945 57.5681 188.735 57.5377C189.525 57.5377 190.194 58.1759 190.194 58.966C190.194 59.7562 189.555 60.4248 188.765 60.4248C187.945 60.4248 187.306 59.7866 187.306 58.9964ZM188.735 57.325C187.823 57.325 187.094 58.0847 187.094 58.966C187.094 59.8777 187.854 60.6071 188.735 60.6071C189.647 60.6071 190.376 59.8473 190.346 58.966C190.376 58.0543 189.647 57.325 188.735 57.325Z" fill="#8E8D8C"/>
</g>
<defs>
<clipPath id="clip0_1077_36416">
<rect width="158.333" height="24.6161" fill="white" transform="translate(32.1641 48.0254)"/>
</clipPath>
</defs>
</svg>
